# xmcd
#
# Track frame offsets:
#	182
#	13627
#	31772
#	48810
#	68105
#	85102
#	101970
#	114977
#	135787
#	153900
#	173590
#
# Disc length: 2559 seconds
#
# Revision: 2
# Processed by: cddbd v1.4PL0 Copyright (c) Steve Scherf et al.
# Submitted via: audiograbber 1.82.02
#
DISCID=7509fd0b
DTITLE=Anita Cochran - Anita
DYEAR=1998
DGENRE=Country
TTITLE0=Good Times
TTITLE1=Let The Guitar Do The Talkin'
TTITLE2=Last Kiss
TTITLE3=Thanks For Reading My Mind
TTITLE4=That's Not What I Said
TTITLE5=For Crying Out Loud
TTITLE6=Living My Life Now
TTITLE7=You With Me
TTITLE8=God Created Woman
TTITLE9=Every Time It Rains
TTITLE10=What I Leave Behind
EXTD=
EXTT0=\n
EXTT1=
EXTT2=
EXTT3=
EXTT4=
EXTT5=
EXTT6=
EXTT7=
EXTT8=
EXTT9=
EXTT10=
PLAYORDER=
